<?xml version="1.0" encoding="UTF-8"?>
<svg xmlns="http://www.w3.org/2000/svg" viewBox="0 0 1050 1174.41">
  <defs>
    <style>
      .cls-1 {
        fill: #df8877;
      }

      .cls-1, .cls-2, .cls-3, .cls-4, .cls-5, .cls-6, .cls-7 {
        stroke-width: 0px;
      }

      .cls-2 {
        fill: #c6b0bc;
      }

      .cls-3 {
        fill: #e1b87f;
      }

      .cls-4 {
        fill: none;
      }

      .cls-8 {
        stroke: #a6b8c1;
        stroke-miterlimit: 10;
        stroke-width: 4px;
      }

      .cls-8, .cls-5 {
        fill: #a6b8c1;
      }

      .cls-6 {
        fill: #b3b995;
      }

      .cls-7 {
        fill: #f1e6b2;
      }
    </style>
  </defs>
  <g id="whisk-2">
    <path class="cls-5" d="M713.19,51.15c-.28.22-.55.46-.81.71-.03.03-.06.07-.09.1-.09.09-.18.16-.27.25-27.31,26.33,38.57,77.14,38.57,77.14l61.07,44.85,43.82,28.29-105.03-77.46s-43.05-34.73-40.16-58.96c7.07,22.66,51.21,56.69,51.21,56.69l53.37,48.41,40.68,31.25-93.89-84.33s-60.49-47.61-45.91-62.84c.24-.24.49-.47.74-.69,15.39-12.73,57.85,45.28,57.84,45.69,0,.42,82.06,101.37,82.06,101.37l-30.56-41.97-49.5-62.07s-27.89-39.13-49.14-47.25c23.53-.69,55.13,42.6,55.03,43.04-.12.52,74.54,107.89,74.54,107.89l-28.01-44.37-44.73-65.8s-43.44-63.36-70.84-39.94Z"/>
    <line class="cls-8" x1="715.75" y1="55.24" x2="902.33" y2="250.41"/>
    <circle class="cls-8" cx="904.25" cy="252.41" r="6.33"/>
  </g>
  <g id="cup">
    <path class="cls-3" d="M728.52,1095.77c-49.47,18.18-102.47,24.06-154.86,29.8-42.89,4.7-86.34,4.62-129.12-1.16-22.06-2.98-43.92-7.47-65.36-13.48-17.79-4.99-47.07-7.77-50.25-28.55-7.76-50.63-15.51-101.26-23.27-151.9-3.88-25.32-7.76-50.63-11.63-75.95-3.17-20.68-5.96-40.6-12.54-60.44-3.98-12.01,20.67-6.59,29.1-7.1,17.25-1.03,34.5-2.07,51.76-3.1,35.33-2.12,70.65-4.24,105.98-6.36,16.99-1.02,33.98-2.04,50.99-2.34,17.68-.31,35.39.16,52.95,2.25,14.48,1.73,28.84,4.56,43.4,5.43,13.39.81,26.82-.05,40.21-.9,19.26-1.23,38.52-2.46,57.78-3.68,14.02-.89,27.47-1.6,41.41-3.33-4.2,105.29-9.83,211.02-16.8,316.17-4.4,1.75-5.3,2.98-9.75,4.62Z"/>
  </g>
  <g id="cake-two">
    <path class="cls-1" d="M317.08,835.03s33.02-31.97,61.41,0c43.43,48.91,69.64,0,69.64,0,0,0,29.46-33,66.47,0,45.87,40.9,73.85,0,73.85,0,0,0,23.43-29.43,55.93,0,37.08,33.58,58.24-5.38,58.24-5.38,0,0,14.81-40.47,49.55.25,44.39,52.04,142.45-167.23-200.85-174.1-350.67-7.02-292.05,174.1-292.05,174.1,0,0,21.81,38.71,57.82,5.13Z"/>
  </g>
  <g id="legs">
    <path class="cls-2" d="M1011.28,969.87c-.27-1.23-.56-2.46-.85-3.68-4.44,14.26-17.56,24.01-30.87,30.79-10.74,5.47-23.03,9.97-35.28,8.52-11.43-1.35-15.18-7.68-20.87-17.68-19.47-34.2-36.78-69.04-54.07-104.4-6.81-13.94-13.63-27.88-19.87-42.08-26.62-60.57-53.15-118.05-87.65-174.64-3.55-5.82-7.11-11.65-11.27-17.05-2.91-3.77-6.56-7.57-11.29-8.06-2.92-.3-5.8.72-8.56,1.73-24.7,9.03-47.11,13.37-58.68,40.79-.26.63,0,.83-.27.2s-1.16-.57-1.82-.42c-12.26,2.85-24.29,6.06-36.78,7.36-16.17,1.68-33.04,3.6-46.64,12.52-1.18.77-2.41,1.73-2.66,3.12-.2,1.14.32,2.27.85,3.3,13.31,26.17,31.93,50.99,49.28,74.68,9.69,13.23,19.65,26.26,29.77,39.17,3.95,5.04,30.31,31.29,29.16,36.43-3.58,15.93-7.18,31.97-7.85,48.28-1.75,27.81,1.4,55.68,4.84,83.25,2.96,23.73,12.45,53.74,6.18,77.27-2.52,9.46-7.8,17.98-10.48,27.4-2.68,9.41-2.06,20.89,5.39,27.24,4.67,3.98,11.26,5.17,17.35,4.34,10.2-1.38,17.55-6.68,28.16-6.82.29,0,.56.02.82.05,5.4-.08,10.76.34,16.05,1.73,9.8,2.57,19.78,6.42,29.77,4.72,9.05-1.54,16.76-7.49,22.95-14.27,7.36-8.07,12.07-18.36,11.94-29.15-.99,1.98-3.82,3.66-6.25,4.31-23.83,6.35-52.66,8.06-69.72-9.74-22.31-23.29-12.92-64.42-6.75-92.23,7.84-35.33,20.35-69.51,26.46-105.24,2-11.67,3.29-23.44,3.53-35.29.25-12.31-5.43-19.75-11.31-30.5-11.74-21.46-20.49-45.54-33.23-66.28,20.12,32.75,48.61,60.59,70.04,92.5,22.42,33.39,17.25,76.52,44.04,106.53,13.66,15.3,30.64,27.15,46.69,39.31,16.58,12.57,25.51,30.59,32.74,49.78,2.2,5.82,4.32,11.79,8.03,16.79,15.58,21,31.68-4.29,43.56-15.05,17.56-15.89,53.56-12.23,49.81-43.76-1.03-8.65-2.5-17.25-4.39-25.76Z"/>
  </g>
  <g id="wings">
    <g id="close-gap">
      <path class="cls-5" d="M323.05,273.92c-19.07-8.78-40.2-16.04-60.75-11.76,1.66,28.32,23.7,50.71,44.65,69.84,17.47,15.96,35.17,31.68,53.04,47.19,27.85,24.18,58.58,48.94,95.29,52.52,6.67.65,13.81.47,19.51-3.05,6.96-4.29,10.38-12.83,10.62-21,.94-32.06-42.36-55.01-64.73-72.39-30.39-23.61-62.59-45.21-97.62-61.35Z"/>
    </g>
    <path class="cls-5" d="M494.73,461.59c.34-23.35-.8-50.84-17.28-67.06-59.17-58.24-134.16-95.39-206.54-136.06-10.71-6.02-17.24-17.45-26.87-25.37-14.48-11.91-31.74-20.8-43.54-35.38-2.98-3.69-5.65-7.71-5.42-12.69.34-7.43,11.17-13.99,17.49-16.29,45.53-16.54,97.06-10.35,141.71,8.45,44.65,18.79,83.36,49.29,119.31,81.76,6.2,5.6,12.33,11.26,18.47,16.93,26.03,24.04,72.18,59.84,74.54,95.19-8.53,4.22-36.66,287.18-46.18,287.13-9.52-.05-29.25-285.35-33.93-277.06-3.11,5.5-3.65,13.69-13.82,11.52-51.58-29.99-94.22-74.02-147.37-101.05-20.01-10.18-42.69-27.6-62.81-37.56-33.17-16.43-71.25-22.85-107.96-18.05-40.24,5.26-74.49,32.31-109.43,52.87-8.15,4.8-14.37,16.47-13.75,25.9,1.84,27.69,22.58,42.72,41.4,57.89,14,11.28,27.64,23.49,37.07,38.79,8.82,14.32,14.17,31.55,27.42,41.9,2.95,2.3,6.33,4.32,8.16,7.58,1.61,2.89,1.76,6.33,2.07,9.63,1.18,12.55,5.27,24.81,11.85,35.55,5.13,8.37,12.04,16.02,21.04,19.96,20.37,8.9,43.26-3.4,62.04-15.29,30.82-19.51,61.63-39.02,92.45-58.53-20.26,17.84-40.52,35.68-60.78,53.52-18.51,16.3-37.79,33.73-45.61,57.12s.9,54.24,24.36,61.89c8.39,2.73,19.01,3.17,23.26,10.89,5.43,9.88-3.5,25.89,6.09,31.81,6.99,4.31,17.35-2.37,23.89,2.59,4.09,3.11,2.36,9.6,3.37,14.64s6.94,10.2,11.89,8.81c3.26-.91,6.65-3.17,9.98-3.78,6.05-1.1,4.68,7.09,8.24,11.22,4.65,5.39,13.33,2.52,19.79-.46s10.92-6.43,14.55-.31c1.35,2.28,6.3,6.77,8.18,8.64,5.82,5.78,14.02-7.96,22.02-6.12,3.6.83,6.28,5.46,9.2,7.71s9.96,4.09,16.93,3.51c20.75-2.33,28.6-28.83,35.56-48.52,6.96-19.69,7.89-40.99,13.31-61.15,3.56-13.27,9.07-26.08,10.86-39.7,1.3-9.95.58-20.03.55-30.06-.08-29.09,4.11-57.65,2.99-86.72-.58-15.15-1.39-31.07-9.4-43.94-2.2-3.53-4.99-7.01-5.23-11.16-.35-6.19,4.99-11.04,9.86-14.89l6,83.8Z"/>
  </g>
  <g id="hands">
    <path class="cls-2" d="M762.49,288.71c4.04-7.43,10.95-12.77,17.59-18,18.58-14.61,36.58-29.98,53.92-46.05,1.64-1.52,3.35-3.18,3.83-5.36.38-1.73-.08-3.52-.32-5.27-1.4-10.4,5.12-20.03,11.32-28.49,1.97-2.68,4.11-5.5,7.23-6.66,4.38-1.62,9.21.52,13.16,3.01,15.97,10.08,27.47,26.98,30.99,45.53.62,3.25.98,6.68-.13,9.79-3.07,8.6-14.4,9.72-23.33,11.68-18.68,4.11-33.72,17.72-46.62,31.84s-24.98,29.57-41.37,39.44c-20.45,12.3-35.98-13.6-26.27-31.46Z"/>
    <path class="cls-2" d="M452.61,698.97c-1.97,6.32-5.71,11.71-14.47,16.53-7.21,3.97-15.12,6.55-22.35,10.49-1.74.95-3.47,2-4.69,3.55-1.38,1.74-1.99,3.96-2.43,6.14-.79,3.94-1.08,7.98-.88,12,.07,1.51.71,3.48,2.22,3.4.93-.05,1.58-.91,2.08-1.7,3-4.77,5.4-9.92,7.1-15.3-1.75,4.6-2.45,9.6-2.05,14.51.11,1.38.74,3.15,2.13,3.09.91-.04,1.54-.9,2.01-1.68,2.71-4.5,4.91-9.32,6.53-14.32-2.19,4.72-3.09,10.03-2.59,15.21.11,1.13.33,2.35,1.17,3.12,2.01,1.83,5.09-.44,6.62-2.68,3.34-4.88,5.69-10.43,6.87-16.22-1.58,5.24-2.53,10.67-2.81,16.14-.07,1.3-.04,2.77.88,3.69,1.41,1.42,3.96.56,5.23-1,5.37-6.6,2.1-16.95,13.77-18.57,8.62-1.2,19.75,7.92,25.77,13.12,3.72-1.66,4.03-7.01,2.35-10.73s-4.69-6.78-5.91-10.67c-1.43-4.55-.2-9.47,1.03-14.08,3.22-12.01,7.39-24.63,6.94-37.22-.28-7.73-3.83-16.08-11-18.98-13.45-5.45-17.87,10.95-19.76,20.76-1.58,8.23-1.83,15.25-3.75,21.39Z"/>
  </g>
  <g id="hair-2">
    <path class="cls-6" d="M567.01,370.59c-21.92,18.19-41.24.28-45.2-17-1.16-5.07-5.04-9.15-10.11-10.3-6.56-1.48-15.69-6.54-25.05-21.45-1.06-1.69-1.95-4.68-2.61-8.15-1.73-9.01.22-18.29,5.04-26.1,2.99-4.85,4.6-11.4-3.67-13.3-13.06-3.01-1.09-28.6,6.36-26.06,11.24,3.82,34.09-13.89,27.65-24.49-7.61-12.54,18.68-35.13,36.66-20.18,7.82,6.49,18.52-3.58,32.72-7.81-2.07,1.41,9.53-6.44,18.45,9.26,11.14,19.62-6.37,32.17-32.13,41.09-22,7.62-7.23,24.59-2.46,29.38,1,1,1.83,2.15,2.47,3.41,4.36,8.49,18.63,39.35-5.05,37.32-19.97-1.71-8,23.21,0,36.9,3.38,5.79,2.08,13.21-3.08,17.49Z"/>
  </g>
  <g id="liitle-cup">
    <path class="cls-3" d="M526.43,217.75c-8.62-10.51-17.24-18.89-25.87-29.11-1.46-1.73-4.19-1.39-5.21.63-8.59,17.06-22.4,31.47-39.13,40.7-1.09.6-3.39,5.07-3.19,3.84,13.18,7.49,25.98,15.64,38.34,24.42,1.02.73,2.39.79,3.45.12,13.74-8.73,24.96-22.58,32.02-37.28.52-1.09.35-2.39-.41-3.33Z"/>
  </g>
  <g id="little-cake">
    <path class="cls-1" d="M451.48,236.18s-.08-.02-.12-.03c-1.15-.31-2.19-.99-2.94-1.91-4.83-5.98-5.16-16.25.92-21.05-3.39-.86-4.13-3.31-5.3-6.61-1.47-4.16-.31-8.21,1.56-11.42-2.17-.49-2.64-1.09-3.41-3.39-.91-2.71.52-5.58.92-8.41.6-4.32-1.49-8.9-5.15-11.27,7.43,4.81,12.89.84,20.9,3.1,1.23.35,1.34.34,2.34.56.8.17,1.41.31,3.56,1.06,1.65-1.95,2.28-1.06,4.64-2.38,2.61-1.45,5.66.51,8.15,2.16,2.29,1.52,4.28.61,3.8,3.17,2.04-1.93,2.43-.78,4.99-2.43,2.86-1.85,6.58-2.63,9.72-1.32,6.07,2.52,5.49,9.85,3.02,14.59-5.67,10.86-13.31,20.75-21.91,29.44-5.09,5.14-17.03,18.34-25.68,16.14Z"/>
  </g>
  <g id="face-2">
    <path class="cls-2" d="M593.14,241.73c28.64,14.1,28.9,7,35.7,9.11.78.24,1.32.99,1.39,1.83l.98,11.92s-.1,4.49,3.99,11.37c6.03,10.13,23.95,15.08-13.38,39.3-36.89,23.93,9.2,67.02,9.2,67.02,4.13,10.75-72.16,37.59-69.05.9,2.33-27.44,9.9-40.02-11.82-61.7-19.86-19.82-20.39-22.56-20.39-22.56,0,0,31.47,9.62,38.85-3.81,8.12-14.79-18.37-33.24-7.45-43.37,20.19-18.73,32-10.01,32-10.01Z"/>
  </g>
  <g id="shirt">
    <path class="cls-7" d="M805.09,328.45s-.03.01-.04.03c-10.62,13.46-28.06,19-43.75,25.94-24.57,10.86-48.68,27.02-66.4,47.41-16.45,18.94-19.43,39.9-16.18,64.35,4.66,35.02,14.22,69.37,28.2,101.82,6.85,15.89,14.75,31.33,23.66,46.16,6.48,10.79,26.94,28.82,8.12,34.95-10.02,3.26-20.79,3.26-31.16,5.15-10.37,1.89-21.17,6.35-26.4,15.5-2.92,5.1-4.07,11.54-8.73,15.12-2.39,1.84-5.39,2.64-8.31,3.41-19.5,5.11-38.99,10.22-58.49,15.33-8.07,2.12-16.24,4.27-23.54,8.3-7.93,4.38-14.5,10.8-21.74,16.25-10.06,7.57-21.49,13.32-33.58,16.85-1.9.55-3.91.64-5.84.19-7.21-1.67-7.36-6.97-7.34-11.71.09-20.11.18-40.34,3.82-60.12,3.51-19.1,9.39-37.11,10.11-56.52.6-15.95,2.17-31.68,1.94-50.32-.29-23.06,2.56-59.08-1.8-83.79-.14-.79-1.37-.56-1.28.24,2.04,17.64.47,43.51.36,58.2-.11,14.77.3,27.81.19,42.58-.21,28.09-3.77,65.9-14.13,91.16-4.15,10.13-7.35,27.48-29.6,7.35-3.25-2.94-7.5-4.7-11.73-5.87-8.81-2.44-22.73,6.08-30.09.65-3.3-2.43-3.27-7.38-3.97-11.42-1.99-11.49,1.43-23.83,3.43-35.31,8.02-46,24.75-90.37,29.53-136.81,2.83-27.53,1.45-55.67,8.3-82.48,2.7-10.55,7.66-21.88,17.76-25.96,15.99-6.47,43.22-2.92,60.44-2.7,1.73.02,3.52.07,5.09.81,1.8.85,3.06,2.51,4.34,4.03,18.76,22.24,44.07,12.99,63.54-3.88,14.04-12.16,28.86-23.47,43.51-35.14,19.81-15.78,39.08-32.24,57.77-49.34,6.95-6.36,20.5-25.31,29.22-27.73,10.64-2.95,11.24,14.97,13.9,24.01,2.52,8.6,7.12,17.5,15.42,20.89,4.17,1.7,9.03,1.88,12.67,4.54s7.02,6.58,2.74,7.89Z"/>
    <path class="cls-4" d="M1023.92,446.41l-.11.99"/>
  </g>
</svg>