<?xml version="1.0" encoding="UTF-8"?>
<svg id="Layer_18" data-name="Layer 18" xmlns="http://www.w3.org/2000/svg" viewBox="0 0 1146.63 1154.26">
  <defs>
    <style>
      .cls-1 {
        fill: #b3b995;
      }

      .cls-1, .cls-2, .cls-3, .cls-4, .cls-5, .cls-6, .cls-7 {
        stroke: #231f20;
        stroke-miterlimit: 10;
      }

      .cls-2 {
        fill: #df8877;
      }

      .cls-3 {
        fill: #e1b87f;
      }

      .cls-4 {
        fill: #c6b0bc;
      }

      .cls-5 {
        fill: none;
      }

      .cls-6 {
        fill: #f1e6b2;
      }

      .cls-7 {
        fill: #a6b8c1;
      }
    </style>
  </defs>
  <polygon class="cls-5" points="776.69 27.71 776.68 27.71 776.68 27.71 776.69 27.71"/>
  <path class="cls-5" d="M905.69,159.77c-22.64-27.87-70.44-86.73-70.43-87.05,0-.4-41.02-56.46-57.03-46.28l127.46,133.33Z"/>
  <path class="cls-5" d="M822.59,90.55l80.59,72.38-127.71-133.59c-9.39,16.72,47.12,61.21,47.12,61.21Z"/>
  <path class="cls-5" d="M788.12,22.8c21.25,8.12,49.14,47.25,49.14,47.25l49.5,62.07,20.93,28.75c.18-.25.36-.5.53-.75-20.09-28.91-65.17-93.87-65.08-94.28.1-.44-31.5-43.72-55.03-43.04Z"/>
  <path class="cls-5" d="M743.89,639.54c2.8-2.94,5.84-5.42,9.1-7.58-3.53,1.95-6.67,4.44-9.1,7.58Z"/>
  <path class="cls-5" d="M822.43,95.22s-44.14-34.03-51.21-56.69c-2.9,24.23,40.16,58.96,40.16,58.96l92.9,68.51c.07-.11.14-.23.21-.34l-28.68-22.04-53.37-48.41Z"/>
  <path class="cls-7" d="M811.37,97.49s-43.05-34.73-40.16-58.96c7.07,22.66,51.21,56.69,51.21,56.69l53.37,48.41,28.68,22.04c1.02-1.63,2.11-3.23,3.21-4.8l-20.93-28.75-49.5-62.07s-27.89-39.13-49.14-47.25c23.53-.69,55.13,42.6,55.03,43.04-.09.41,44.99,65.36,65.08,94.28.15-.21.31-.43.46-.64l-19.01-30.11-44.73-65.8S801.52.2,774.12,23.62c-.28.22-.55.46-.81.71-.03.03-.06.07-.09.1-.09.09-.18.16-.27.25-27.31,26.33,38.57,77.14,38.57,77.14l61.07,44.85,31.2,20.14c.16-.27.32-.54.49-.8l-92.9-68.51ZM835.26,72.72c0,.32,47.79,59.18,70.43,87.05l-127.46-133.33c16.01-10.18,57.04,45.88,57.03,46.28ZM776.69,27.71h0s0,0,0,0c0,0,0,0,0,0,0,0,0,0,0,0ZM775.47,29.34l127.71,133.59-80.59-72.38s-56.52-44.48-47.12-61.21Z"/>
  <line class="cls-5" x1="776.68" y1="27.71" x2="776.68" y2="27.71"/>
  <path class="cls-7" d="M954.56,216.68l3.58,3.75c-.82,1.29-1.3,2.82-1.3,4.46,0,4.6,3.74,8.33,8.33,8.33s8.33-3.74,8.33-8.33-3.74-8.33-8.33-8.33c-1.51,0-2.92.41-4.14,1.11l-3.16-3.31c-.98.9-2.08,1.67-3.31,2.33Z"/>
  <path class="cls-3" d="M746.53,1069.12c2.67-9.41,7.95-17.94,10.48-27.4,6.27-23.52-3.23-53.54-6.18-77.27-3.44-27.57-6.59-55.43-4.84-83.25.67-16.32,4.27-32.35,7.85-48.28.47-2.09-3.61-7.67-8.88-13.9-9.74,3.99-23.11,3.45-39.65-11.53-32.5-29.43-55.93,0-55.93,0,0,0-27.98,40.9-73.85,0-37.01-33-66.47,0-66.47,0,0,0-26.21,48.91-69.64,0-28.39-31.97-61.41,0-61.41,0-8.9,8.3-16.94,12.18-23.99,13.32.31,2.06.63,4.12.94,6.19,3.88,25.32,7.76,50.63,11.63,75.95,7.76,50.63,15.51,101.26,23.27,151.9,3.18,20.78,32.46,23.56,50.25,28.55,21.44,6.01,43.3,10.5,65.36,13.48,42.78,5.78,86.23,5.86,129.12,1.16,37.04-4.06,74.38-8.19,110.57-16.69-.27-4.09.26-8.33,1.37-12.23Z"/>
  <path class="cls-3" d="M800.19,1048.26c2.91-44.79,5.58-89.67,8-134.57-4.26,15.13-8.54,30.26-11.95,45.6-5.89,26.56-14.7,65.26,3.95,88.97Z"/>
  <path class="cls-2" d="M781.69,721.99c12.74,20.74,21.49,44.82,33.23,66.28,4.36,7.97,8.61,14.12,10.41,21.79,6.35,1.17,12.88-1.38,18.58-6.64-20.19-27.43-44.46-52.52-62.22-81.43Z"/>
  <path class="cls-2" d="M439.41,807.5c43.43,48.91,69.64,0,69.64,0,0,0,29.46-33,66.47,0,45.87,40.9,73.85,0,73.85,0,0,0,23.43-29.43,55.93,0,16.54,14.98,29.91,15.52,39.65,11.53-7.69-9.08-17.93-19.54-20.27-22.53-10.12-12.91-20.08-25.94-29.77-39.17-17.28-23.59-35.82-48.31-49.11-74.37-.94.45-1.87.93-2.79,1.43-7.93,4.38-14.5,10.8-21.74,16.25-10.06,7.57-21.49,13.32-33.58,16.85-1.9.55-3.91.64-5.84.19-7.21-1.67-7.36-6.97-7.34-11.71.09-20.11.18-40.34,3.82-60.12.95-5.14,2.06-10.2,3.2-15.23-.06.02-.11.04-.17.04-.49,0-1.02-.79-1.56-2.25-1.7,6.81-3.7,13.23-6.07,19-3.92,9.57-7.01,25.59-26.13,10.3-1.13,9.43-4.09,18.78-6.5,27.8-1.23,4.61-2.47,9.52-1.03,14.08,1.22,3.89,4.23,6.95,5.91,10.67,1.68,3.71,1.38,9.06-2.35,10.73-6.01-5.21-17.14-14.32-25.77-13.12-11.67,1.62-8.4,11.97-13.77,18.57-1.26,1.55-3.82,2.42-5.23,1-.92-.93-.95-2.39-.88-3.69.2-3.89.75-7.77,1.61-11.57-1.32,4.13-3.23,8.07-5.67,11.65-1.53,2.24-4.61,4.5-6.62,2.68-.84-.77-1.06-1.98-1.17-3.12-.35-3.64,0-7.33,1-10.85-1.38,3.44-3.02,6.78-4.94,9.96-.47.78-1.1,1.64-2.01,1.68-1.39.06-2.02-1.7-2.13-3.09-.34-4.16.12-8.39,1.33-12.39-1.63,4.61-3.78,9.04-6.39,13.18-.5.79-1.15,1.65-2.08,1.7-1.51.07-2.14-1.89-2.22-3.4-.2-4.02.1-8.06.88-12,.43-2.18,1.05-4.4,2.43-6.14,1.22-1.55,2.96-2.61,4.69-3.55,7.23-3.94,15.13-6.52,22.35-10.49,8.76-4.82,12.5-10.21,14.47-16.53.33-1.05.6-2.14.84-3.25-5.46,9.6-12.66,17.03-23.21,18.21-6.97.58-14.01-1.25-16.93-3.51-2.92-2.26-5.6-6.89-9.2-7.71-7.99-1.84-16.19,11.9-22.02,6.12-1.88-1.86-6.83-6.36-8.18-8.64-3.63-6.12-8.09-2.68-14.55.31-6.46,2.98-15.14,5.85-19.79.46-2.87-3.33-2.54-9.28-5.47-10.9-103.66,50.8-74.85,139.84-74.85,139.84,0,0,12.36,21.93,33.83,18.45,7.05-1.14,15.09-5.02,23.99-13.32,0,0,33.02-31.97,61.41,0Z"/>
  <path class="cls-4" d="M1076.6,968.09c-1.03-8.65-2.5-17.25-4.39-25.76-.27-1.23-.56-2.46-.85-3.68-4.44,14.26-17.56,24.01-30.87,30.79-10.74,5.47-23.03,9.97-35.28,8.52-11.43-1.35-15.18-7.68-20.87-17.68-19.47-34.2-36.78-69.04-54.07-104.4-6.81-13.94-13.63-27.88-19.87-42.08-26.62-60.57-53.15-118.05-87.65-174.64-3.55-5.82-7.11-11.65-11.27-17.05-1.46-1.89-3.1-3.79-4.98-5.27-1.09,1.93-3.25,3.55-6.88,4.73-10.03,3.26-20.79,3.26-31.16,5.15-5.32.97-10.75,2.63-15.49,5.24-3.25,2.16-6.3,4.64-9.1,7.58-.66.85-1.27,1.74-1.82,2.69-2.92,5.1-4.07,11.54-8.73,15.12-2.39,1.84-5.39,2.64-8.31,3.41-19.5,5.11-38.99,10.22-58.49,15.33-7.06,1.85-14.19,3.73-20.75,6.87,13.3,26.06,31.83,50.77,49.11,74.37,9.69,13.23,19.65,26.26,29.77,39.17,2.34,2.99,12.58,13.45,20.27,22.53,5.27,6.22,9.35,11.81,8.88,13.9-3.58,15.93-7.18,31.97-7.85,48.28-1.75,27.81,1.4,55.68,4.84,83.25,2.96,23.73,12.45,53.74,6.18,77.27-2.52,9.46-7.8,17.98-10.48,27.4-1.11,3.89-1.64,8.14-1.37,12.23.38,5.8,2.39,11.29,6.76,15.01,4.67,3.98,11.26,5.17,17.35,4.34,10.2-1.38,17.55-6.68,28.16-6.82.29,0,.56.02.82.05,5.4-.08,10.76.34,16.05,1.72,9.8,2.57,19.78,6.42,29.77,4.72,9.05-1.54,16.76-7.49,22.95-14.27,7.36-8.07,12.07-18.36,11.94-29.15-.99,1.98-3.82,3.66-6.25,4.31-23.83,6.35-52.66,8.06-69.72-9.74-1-1.05-1.92-2.14-2.8-3.26-18.65-23.71-9.84-62.41-3.95-88.97,3.41-15.34,7.69-30.47,11.95-45.6,5.55-19.71,11.05-39.43,14.51-59.64,2-11.67,3.29-23.44,3.53-35.29.06-3.18-.27-6.03-.9-8.7-1.8-7.67-6.05-13.83-10.41-21.79-11.74-21.46-20.49-45.54-33.23-66.28,17.76,28.91,42.03,53.99,62.22,81.43,2.68,3.65,5.3,7.33,7.81,11.07,22.42,33.39,17.25,76.52,44.04,106.53,13.66,15.3,30.64,27.15,46.69,39.31,16.58,12.57,25.51,30.59,32.74,49.78,2.2,5.82,4.32,11.79,8.03,16.79,15.58,21,31.68-4.29,43.56-15.05,17.56-15.89,53.56-12.23,49.81-43.76Z"/>
  <path class="cls-7" d="M588.44,589.34c.6-15.95,2.17-31.68,1.94-50.32-.29-23.06,2.56-59.08-1.8-83.79-.14-.79-1.37-.56-1.28.24,2.04,17.64.47,43.51.36,58.2-.11,14.77.3,27.81.19,42.58-.16,21.68-2.33,49.15-8.06,72.17.55,1.47,1.07,2.25,1.56,2.25.06,0,.11-.02.17-.04,3.1-13.66,6.38-27.1,6.91-41.28Z"/>
  <path class="cls-7" d="M400.5,673.43c4.65,5.39,13.33,2.52,19.79-.46,6.46-2.98,10.92-6.43,14.55-.31,1.35,2.28,6.3,6.77,8.18,8.64,5.82,5.78,14.02-7.96,22.02-6.12,3.6.83,6.28,5.46,9.2,7.71,2.92,2.26,9.96,4.09,16.93,3.51,10.54-1.18,17.75-8.61,23.21-18.21,1.18-5.3,1.6-11.22,2.88-17.96-5.66,1.2-11.17,2.09-14.94-.7-3.3-2.43-3.27-7.38-3.97-11.42-1.99-11.49,1.43-23.83,3.43-35.31,8.02-46,24.75-90.37,29.53-136.81,2.83-27.53,1.45-55.67,8.3-82.48,2.7-10.55,7.66-21.88,17.76-25.96,15.99-6.47,43.22-2.92,60.44-2.7,1.73.02,3.52.07,5.09.81.29-3.43.66-6.63,1.05-9.65-20.23,13.06-37.49-3.72-41.21-19.95-1.16-5.07-5.04-9.15-10.11-10.3-6.56-1.48-15.69-6.54-25.05-21.45-1.06-1.69-1.95-4.68-2.61-8.15-1.73-9.01.22-18.29,5.04-26.1,2.99-4.85,4.6-11.4-3.67-13.3-4.75-1.09-6.18-5.18-5.73-9.81-2.02-1.85-4.04-3.7-6.08-5.54-35.95-32.47-74.66-62.96-119.31-81.76-44.65-18.79-96.18-24.99-141.71-8.45-6.32,2.29-17.15,8.85-17.49,16.29-.23,4.98,2.43,9,5.42,12.69,11.8,14.58,29.05,23.47,43.54,35.38,9.63,7.92,16.16,19.36,26.87,25.37,1.45.81,2.89,1.62,4.34,2.43-.08,0-.16,0-.23,0-4.25-2.51-8.44-4.85-12.52-6.87-33.17-16.43-71.25-22.85-107.96-18.05-40.24,5.26-74.49,32.31-109.43,52.87-8.15,4.8-14.37,16.47-13.74,25.9,1.84,27.69,22.58,42.72,41.4,57.89,14,11.28,27.64,23.49,37.07,38.79,8.82,14.32,14.17,31.55,27.42,41.9,2.95,2.3,6.33,4.32,8.16,7.58,1.61,2.89,1.76,6.33,2.07,9.63,1.18,12.55,5.27,24.81,11.85,35.55,5.13,8.37,12.04,16.02,21.04,19.96,20.37,8.9,43.26-3.4,62.04-15.29,30.82-19.51,61.63-39.02,92.45-58.53l-60.78,53.52c-18.51,16.3-37.79,33.72-45.61,57.12-7.82,23.39.9,54.24,24.36,61.89,8.39,2.73,19.01,3.17,23.26,10.89,5.43,9.88-3.5,25.89,6.09,31.81,6.99,4.31,17.35-2.37,23.89,2.59,4.09,3.11,2.36,9.6,3.37,14.64,1.02,5.04,6.95,10.2,11.89,8.81,3.26-.91,6.65-3.17,9.98-3.78,1.18-.21,2.07-.07,2.77.32,2.92,1.62,2.6,7.57,5.47,10.9Z"/>
  <path class="cls-4" d="M850.61,288.49c1.18.48,2.41.84,3.65,1.17,14.12-9.83,25.13-23.67,36.79-36.45,12.9-14.12,27.94-27.73,46.62-31.84,5.55-1.22,12.04-2.11,16.89-4.69,1.23-.65,2.33-1.43,3.31-2.33,1.36-1.26,2.45-2.77,3.13-4.66,1.11-3.11.74-6.55.13-9.79-3.52-18.55-15.02-35.45-30.99-45.53-3.95-2.49-8.78-4.63-13.16-3.01-3.12,1.16-5.26,3.98-7.23,6.66-.35.48-.71.97-1.06,1.46-.15.21-.31.43-.46.64-.18.25-.36.5-.53.75-1.11,1.56-2.19,3.16-3.21,4.8-.07.11-.14.23-.21.34-.16.27-.33.54-.49.8-3.68,6.15-6.29,12.75-5.36,19.7.24,1.76.7,3.54.32,5.27-.48,2.18-2.19,3.84-3.83,5.36-17.34,16.07-35.33,31.44-53.92,46.05-3.3,2.59-6.66,5.22-9.71,8.11,1.77,5.21,2.58,11.84,3.89,16.3,2.52,8.6,7.12,17.5,15.42,20.89Z"/>
  <path class="cls-4" d="M532.41,648.88c-4.29-1.19-9.79.22-15.15,1.35-1.28,6.74-1.7,12.66-2.88,17.96-.25,1.11-.51,2.2-.84,3.25-1.97,6.32-5.71,11.71-14.47,16.53-7.21,3.97-15.12,6.55-22.35,10.49-1.74.95-3.47,2-4.69,3.55-1.38,1.74-1.99,3.96-2.43,6.14-.79,3.94-1.08,7.98-.88,12,.07,1.51.71,3.48,2.22,3.4.93-.05,1.58-.91,2.08-1.7,2.61-4.14,4.75-8.57,6.39-13.18-1.21,4-1.68,8.22-1.33,12.39.11,1.38.74,3.15,2.13,3.09.91-.04,1.54-.9,2.01-1.68,1.91-3.18,3.56-6.52,4.94-9.96-.99,3.52-1.35,7.21-1,10.85.11,1.13.33,2.35,1.17,3.12,2.01,1.83,5.09-.44,6.62-2.68,2.45-3.58,4.36-7.52,5.67-11.65-.86,3.8-1.41,7.67-1.61,11.57-.07,1.3-.04,2.77.88,3.69,1.41,1.42,3.96.56,5.23-1,5.37-6.6,2.1-16.95,13.77-18.57,8.62-1.2,19.75,7.92,25.77,13.12,3.72-1.66,4.03-7.01,2.35-10.73-1.68-3.71-4.69-6.78-5.91-10.67-1.43-4.55-.2-9.47,1.03-14.08,2.41-9.01,5.37-18.37,6.5-27.8-1.1-.88-2.25-1.85-3.47-2.95-3.25-2.94-7.5-4.7-11.73-5.87Z"/>
  <path class="cls-1" d="M546.34,246.76c8.26,1.9,6.66,8.45,3.67,13.3-4.82,7.8-6.77,17.09-5.04,26.1.66,3.46,1.55,6.46,2.61,8.15,9.36,14.91,18.49,19.97,25.05,21.45,5.07,1.15,8.95,5.23,10.11,10.3,3.72,16.23,20.97,33,41.21,19.95,2.71-21.09,6.13-33.09-12.87-52.05-19.86-19.82-20.39-22.56-20.39-22.56,0,0,31.47,9.62,38.85-3.81,8.12-14.79-18.37-33.24-7.45-43.37,13.64-12.65,23.44-12.78,28.38-11.53,17.25-8.4,26.63-19.56,17.74-35.22-8.92-15.7-20.52-7.85-18.45-9.26-14.19,4.23-24.9,14.3-32.72,7.81-12.57-10.44-29.19-2.55-35.46,7.43,1.93,2.19,3.87,4.42,5.8,6.78.77.93.94,2.24.41,3.33-7.06,14.7-18.29,28.55-32.02,37.28-1.06.67-2.43.61-3.45-.12-2.45-1.74-4.91-3.44-7.39-5.13-2.2,3.21-3.91,7.48-4.29,11.37-.45,4.63.98,8.71,5.73,9.81Z"/>
  <path class="cls-3" d="M555.75,230.83c13.74-8.73,24.96-22.58,32.02-37.28.52-1.09.35-2.39-.41-3.33-1.93-2.36-3.87-4.59-5.8-6.78-6.69-7.57-13.38-14.4-20.07-22.33-.15-.18-.32-.32-.5-.46-.28.84-.61,1.66-1,2.4-5.67,10.86-13.31,20.75-21.91,29.44-4.13,4.16-12.75,13.62-20.47,15.89,9.3,5.4,18.4,11.13,27.29,17.19,2.48,1.69,4.95,3.39,7.39,5.13,1.02.73,2.39.79,3.45.12Z"/>
  <path class="cls-2" d="M538.08,192.5c8.61-8.69,16.25-18.58,21.91-29.44.39-.74.72-1.56,1-2.4,1.48-4.53,1.1-10.07-4.02-12.19-3.14-1.3-6.87-.52-9.72,1.32-2.56,1.65-2.95.51-4.99,2.43.48-2.56-1.51-1.64-3.8-3.17-2.49-1.65-5.54-3.62-8.15-2.16-2.36,1.31-2.99.42-4.64,2.38-2.16-.75-2.77-.89-3.56-1.06-1-.22-1.12-.22-2.34-.56-8.01-2.26-13.47,1.71-20.9-3.1,3.66,2.37,5.75,6.95,5.15,11.27-.39,2.83-1.83,5.7-.92,8.41.78,2.3,1.25,2.9,3.41,3.39-1.86,3.22-3.02,7.27-1.55,11.42,1.17,3.3,1.91,5.75,5.3,6.61-6.08,4.8-5.75,15.07-.92,21.05.75.93,1.79,1.6,2.94,1.91.04.01.08.02.12.03,1.64.42,3.4.28,5.2-.25,7.72-2.27,16.35-11.73,20.47-15.89Z"/>
  <path class="cls-4" d="M622.07,224.21c-10.92,10.13,15.57,28.58,7.45,43.37-7.37,13.43-38.85,3.81-38.85,3.81,0,0,.53,2.74,20.39,22.56,19.01,18.96,15.59,30.97,12.87,52.05-.39,3.01-.76,6.21-1.05,9.65,1.8.85,3.06,2.51,4.34,4.03,18.76,22.24,44.07,12.99,63.54-3.88.39-.34.79-.67,1.18-1,0-.02,0-.03-.01-.05,0,0-46.09-43.1-9.2-67.03,37.33-24.21,19.41-29.16,13.38-39.3-4.09-6.88-3.99-11.37-3.99-11.37l-.98-11.92c-.07-.85-.61-1.59-1.39-1.83-6.8-2.11-7.06,4.99-35.7-9.11,0,0-1.25-.92-3.62-1.52-4.93-1.25-14.74-1.12-28.38,11.53Z"/>
  <path class="cls-6" d="M627.23,359.68c-1.28-1.52-2.54-3.18-4.34-4.03-1.57-.74-3.36-.79-5.09-.81-17.21-.22-44.44-3.77-60.44,2.7-10.1,4.09-15.07,15.41-17.76,25.96-6.85,26.81-5.47,54.95-8.3,82.48-4.78,46.44-21.51,90.82-29.53,136.81-2,11.48-5.42,23.83-3.43,35.31.7,4.03.67,8.99,3.97,11.42,3.78,2.79,9.28,1.9,14.94.7,5.36-1.13,10.86-2.54,15.15-1.35,4.23,1.17,8.48,2.93,11.73,5.87,1.21,1.1,2.36,2.07,3.47,2.95,19.12,15.29,22.21-.72,26.13-10.3,2.36-5.76,4.37-12.19,6.07-19,5.74-23.02,7.9-50.48,8.06-72.17.11-14.77-.3-27.81-.19-42.58.11-14.69,1.68-40.56-.36-58.2-.09-.8,1.14-1.03,1.28-.24,4.35,24.71,1.5,60.73,1.8,83.79.24,18.64-1.34,34.37-1.94,50.32-.53,14.18-3.81,27.62-6.91,41.28-1.14,5.03-2.26,10.09-3.2,15.23-3.64,19.78-3.74,40.01-3.82,60.12-.02,4.74.13,10.04,7.34,11.71,1.92.45,3.94.36,5.84-.19,12.09-3.53,23.52-9.28,33.58-16.85,7.24-5.45,13.81-11.86,21.74-16.25.92-.51,1.85-.98,2.79-1.43,6.56-3.14,13.69-5.02,20.75-6.87,19.5-5.11,38.99-10.22,58.49-15.33,2.92-.76,5.92-1.57,8.31-3.41,4.66-3.58,5.81-10.02,8.73-15.12.54-.95,1.16-1.84,1.82-2.69,2.42-3.14,5.56-5.63,9.1-7.58,4.74-2.61,10.17-4.27,15.49-5.24,10.37-1.89,21.13-1.89,31.16-5.15,3.63-1.18,5.79-2.8,6.88-4.73,4.57-8.08-9.77-21.51-15-30.22-8.91-14.83-16.81-30.27-23.66-46.16-13.98-32.44-23.54-66.79-28.2-101.82-3.25-24.45-.27-45.41,16.18-64.35,17.72-20.4,41.82-36.55,66.4-47.41,15.68-6.93,33.12-12.48,43.75-25.94.01-.01.03-.02.04-.03,4.28-1.31.89-5.24-2.74-7.89-2.62-1.91-5.85-2.54-9.02-3.37-1.24-.33-2.47-.69-3.65-1.17-8.29-3.39-12.89-12.29-15.42-20.89-1.31-4.47-2.13-11.09-3.89-16.3-1.81-5.34-4.62-9.19-10.01-7.7-8.72,2.42-22.28,21.37-29.22,27.73-18.69,17.1-37.96,33.55-57.77,49.34-14.25,11.35-28.65,22.36-42.34,34.14-.39.34-.79.67-1.18,1-19.47,16.87-44.79,26.12-63.54,3.88Z"/>
</svg>